{
  "accessors": [
    {
      "bufferView": 2,
      "componentType": 5126,
      "count": 506,
      "max": [
        1.1581707000732422,
        0.7174304127693176,
        2.0834102630615234
      ],
      "min": [
        -1.9130346775054932,
        -0.09391409158706665,
        -2.560222625732422
      ],
      "type": "VEC3"
    },
    {
      "bufferView": 2,
      "byteOffset": 6072,
      "componentType": 5126,
      "count": 506,
      "max": [
        1.0,
        1.0,
        1.0
      ],
      "min": [
        -1.0,
        -1.0,
        -1.0
      ],
      "type": "VEC3"
    },
    {
      "bufferView": 1,
      "componentType": 5126,
      "count": 506,
      "max": [
        0.9954065084457397,
        0.9932273030281067
      ],
      "min": [
        0.0027069784700870514,
        0.008041955530643463
      ],
      "type": "VEC2"
    },
    {
      "bufferView": 0,
      "componentType": 5125,
      "count": 1422,
      "type": "SCALAR"
    },
    {
      "bufferView": 2,
      "byteOffset": 12144,
      "componentType": 5126,
      "count": 905,
      "max": [
        0.6908121109008789,
        1.2536078691482544,
        1.7847363948822021
      ],
      "min": [
        -1.443772315979004,
        0.004377791658043861,
        -2.1854140758514404
      ],
      "type": "VEC3"
    },
    {
      "bufferView": 2,
      "byteOffset": 23004,
      "componentType": 5126,
      "count": 905,
      "max": [
        0.999931812286377,
        1.0,
        0.9852321147918701
      ],
      "min": [
        -0.9999231696128845,
        -1.0,
        -0.9852322936058044
      ],
      "type": "VEC3"
    },
    {
      "bufferView": 3,
      "componentType": 5126,
      "count": 905,
      "max": [
        1.0,
        0.99416184425354,
        1.0,
        1.0
      ],
      "min": [
        -0.9992828369140625,
        -0.9999199509620667,
        -0.9998992681503296,
        -1.0
      ],
      "type": "VEC4"
    },
    {
      "bufferView": 1,
      "byteOffset": 4048,
      "componentType": 5126,
      "count": 905,
      "max": [
        0.9934394359588623,
        0.9967818856239319
      ],
      "min": [
        0.08926516026258469,
        0.013496088795363903
      ],
      "type": "VEC2"
    },
    {
      "bufferView": 0,
      "byteOffset": 5688,
      "componentType": 5125,
      "count": 3039,
      "type": "SCALAR"
    }
  ],
  "asset": {
    "extras": {
      "author": "Michael Neocleous (https://sketchfab.com/mikegneo)",
      "license": "CC-BY-4.0 (http://creativecommons.org/licenses/by/4.0/)",
      "source": "https://sketchfab.com/3d-models/health-pack-mortar-and-pestle-herb-crafting-set-98c25d51e2d84fc48153adf1df7ed520",
      "title": "Health Pack: Mortar and Pestle Herb Crafting Set"
    },
    "generator": "Sketchfab-12.68.0",
    "version": "2.0"
  },
  "bufferViews": [
    {
      "buffer": 0,
      "byteLength": 17844,
      "name": "floatBufferViews",
      "target": 34963
    },
    {
      "buffer": 0,
      "byteLength": 11288,
      "byteOffset": 17844,
      "byteStride": 8,
      "name": "floatBufferViews",
      "target": 34962
    },
    {
      "buffer": 0,
      "byteLength": 33864,
      "byteOffset": 29132,
      "byteStride": 12,
      "name": "floatBufferViews",
      "target": 34962
    },
    {
      "buffer": 0,
      "byteLength": 14480,
      "byteOffset": 62996,
      "byteStride": 16,
      "name": "floatBufferViews",
      "target": 34962
    }
  ],
  "buffers": [
    {
      "byteLength": 77476,
      "uri": "scene.bin"
    }
  ],
  "images": [
    {
      "uri": "textures/lambert1_baseColor.png"
    },
    {
      "uri": "textures/lambert1_metallicRoughness.png"
    },
    {
      "uri": "textures/lambert2_normal.png"
    }
  ],
  "materials": [
    {
      "doubleSided": true,
      "name": "lambert1",
      "occlusionTexture": {
        "index": 1
      },
      "pbrMetallicRoughness": {
        "baseColorTexture": {
          "index": 0
        },
        "metallicRoughnessTexture": {
          "index": 1
        }
      }
    },
    {
      "doubleSided": true,
      "name": "lambert2",
      "normalTexture": {
        "index": 2
      },
      "occlusionTexture": {
        "index": 1
      },
      "pbrMetallicRoughness": {
        "baseColorTexture": {
          "index": 0
        },
        "metallicFactor": 0.41634908536585363,
        "metallicRoughnessTexture": {
          "index": 1
        }
      }
    }
  ],
  "meshes": [
    {
      "name": "pCube13_lambert1_0",
      "primitives": [
        {
          "attributes": {
            "NORMAL": 1,
            "POSITION": 0,
            "TEXCOORD_0": 2
          },
          "indices": 3,
          "material": 0,
          "mode": 4
        }
      ]
    },
    {
      "name": "pCube13_lambert2_0",
      "primitives": [
        {
          "attributes": {
            "NORMAL": 5,
            "POSITION": 4,
            "TANGENT": 6,
            "TEXCOORD_0": 7
          },
          "indices": 8,
          "material": 1,
          "mode": 4
        }
      ]
    }
  ],
  "nodes": [
    {
      "children": [
        1
      ],
      "matrix": [
        0.0555763877928257,
        0.0,
        0.0,
        0.0,
        0.0,
        2.1277801721809793e-17,
        -0.0555763877928257,
        0.0,
        0.0,
        0.0555763877928257,
        2.1277801721809793e-17,
        0.0,
        0.0,
        3.697785493223493e-32,
        -1.6653345369377348e-16,
        1.0
      ],
      "name": "Sketchfab_model"
    },
    {
      "children": [
        2
      ],
      "matrix": [
        1.0,
        0.0,
        0.0,
        0.0,
        0.0,
        0.0,
        1.0,
        0.0,
        0.0,
        -1.0,
        0.0,
        0.0,
        0.0,
        0.0,
        0.0,
        1.0
      ],
      "name": "3ba9e209ff514f82a2840e9375442ee6.fbx"
    },
    {
      "children": [
        3
      ],
      "name": "RootNode"
    },
    {
      "children": [
        4,
        5
      ],
      "matrix": [
        10.470720291137695,
        0.0,
        0.0,
        0.0,
        0.0,
        10.470720291137695,
        0.0,
        0.0,
        0.0,
        0.0,
        10.470720291137695,
        0.0,
        3.5745530128479004,
        -4.988142013549805,
        2.257878303527832,
        1.0
      ],
      "name": "pCube13"
    },
    {
      "mesh": 0,
      "name": "pCube13_lambert1_0"
    },
    {
      "mesh": 1,
      "name": "pCube13_lambert2_0"
    }
  ],
  "samplers": [
    {
      "magFilter": 9729,
      "minFilter": 9987,
      "wrapS": 10497,
      "wrapT": 10497
    }
  ],
  "scene": 0,
  "scenes": [
    {
      "name": "Sketchfab_Scene",
      "nodes": [
        0
      ]
    }
  ],
  "textures": [
    {
      "sampler": 0,
      "source": 0
    },
    {
      "sampler": 0,
      "source": 1
    },
    {
      "sampler": 0,
      "source": 2
    }
  ]
}
